<?xml version="1.0" encoding="utf-8"?> <svg xmlns="http://www.w3.org/2000/svg" xmlns:xlink="http://www.w3.org/1999/xlink" version="1.1" id="Layer_1" x="0px" y="0px" viewBox="0 0 150 50" style="enable-background:new 0 0 150 50;" xml:space="preserve"> <style type="text/css"> .st0{fill:url(#SVGID_1_);} .st1{fill:#555555;} .st2{display:none;} .st3{display:inline;fill:#E52E2E;} .st4{display:inline;} .st5{fill:#FFFFFF;} </style> <g id="Layer_2_1_"> <g> <linearGradient id="SVGID_1_" gradientUnits="userSpaceOnUse" x1="0.3171" y1="25.5197" x2="57.878" y2="25.5197" gradientTransform="matrix(1 0 0 -1 0 50.5827)"> <stop offset="0" style="stop-color:#55A51C"></stop> <stop offset="1" style="stop-color:#66BC29"></stop> </linearGradient> <path class="st0" d="M44.6,41.5c5-0.9,9.3-3.1,12.9-6.7c0.6-0.6,0.5-1.2-0.2-1.6c-3-1.6-6.2-2.6-9.5-2.8c-1.3-0.1-2.7,0-4.1,0 c0.1-0.2,0.2-0.2,0.2-0.3c4.6-5.3,7.1-11.5,7.4-18.5c0-1.2-0.4-1.5-1.6-1.2c-5,1.4-9.3,3.9-12.9,7.5c-0.1,0.1-0.3,0.3-0.4,0.3 c-0.4-2.1-0.6-4.2-1.1-6.3C34.4,7.8,32.5,4.1,30,0.7c-0.6-0.8-1.2-0.9-1.8-0.1c-3.5,4.6-5.5,9.8-6.1,15.5 c-0.1,0.7-0.1,1.4-0.2,2.1c-0.1-0.1-0.2-0.1-0.2-0.1c-0.1-0.1-0.2-0.2-0.3-0.3c-3.7-3.7-8-6.2-13-7.6C7.5,10,7,10.4,7,11.3 c0.2,6.2,2.1,11.9,5.9,16.9c0.5,0.7,1.1,1.4,1.7,2.1c-0.2,0-0.2,0-0.3,0c-4.6-0.3-9,0.6-13.1,2.8c-1,0.5-1,1.1-0.3,1.9 C4,38,7.7,40.2,12,41.2c0.7,0.2,1.4,0.3,2.2,0.5c-0.2,0.2-0.4,0.3-0.5,0.5c-1.9,1.7-3.3,3.8-4.4,6.1c-0.4,0.9-0.1,1.5,1,1.7 c0.2,0,0.5,0,0.7,0c5.1,0.3,9.6-1.1,13.5-4.3c0.5-0.4,1-0.9,1.6-1.4c0,0.9,0,1.7,0,2.5c0,1.2,0.8,2.3,1.9,2.7 c1.9,0.7,3.9-0.6,4-2.7c0-0.8,0-1.6,0-2.5c0.1,0.1,0.2,0.1,0.2,0.1c4.3,4.2,9.4,6.1,15.4,5.6c1.3-0.1,1.7-0.6,1.1-1.8 c-0.1-0.1-0.1-0.3-0.2-0.4c-1.1-2.3-2.6-4.2-4.6-6c0.1-0.1,0.2-0.1,0.2-0.1C44.3,41.6,44.5,41.6,44.6,41.5z M11.5,48 c0.7-1,1.3-2.1,2.1-3c0.9-1.1,2-2,3.1-2.9c0.2-0.2,0.5-0.3,0.7-0.3c3.1,0.1,6.2-0.5,9.1-1.6c0.1,0,0.1,0,0.2-0.1 C25.3,44.4,16.7,48.9,11.5,48z M3,34.3c7.3-3.8,17.9-2.7,24.4,3.5C20.1,41.6,9.4,40.5,3,34.3z M27,35c-2.6-2-5.6-3.3-8.7-4.1 c-0.4-0.1-0.7-0.3-1-0.5c-4.6-4.5-7.4-10-8.2-16.5c-0.1-0.5-0.1-1-0.2-1.4c9.8,2.7,18.1,12.4,19,23.3C27.6,35.5,27.3,35.2,27,35z M24.1,20.9c-0.1-0.2-0.2-0.4-0.2-0.6C23.7,13.9,25.4,8.1,29,2.8c0,0,0,0,0.1-0.1c1.1,1.6,2,3.3,2.8,5.1c1.7,3.9,2.5,8,2.4,12.3 c0,0.2-0.1,0.5-0.2,0.7c-2.2,3-3.9,6.2-4.9,9.8c0,0.1-0.1,0.2-0.1,0.4c-0.3-0.8-0.5-1.5-0.7-2.2C27.4,25.9,25.9,23.3,24.1,20.9z M30.1,43.1c-0.1,1.1,0,2.3,0,3.4c0,0.8-0.4,1.3-1,1.3s-1-0.4-1-1.2c0-1,0.1-2.1,0-3.1c-0.1-1.2,0.2-2.2,1-3.1 C29.7,41.1,30.2,41.9,30.1,43.1z M46.5,47.9L46.5,47.9c-4.2,1.3-12.6-3-15-7.5c1.9,0.4,3.8,0.9,5.8,1.3c1.1,0.2,2.2,0.1,3.3,0.2 c0.3,0,0.5,0,0.7,0.2C43.5,43.6,45.3,45.6,46.5,47.9z M30.7,37.8c2.7-2.4,5.7-4,9.2-4.9c5.1-1.3,11.1-0.8,15.3,1.4 C49.1,40.2,38.8,41.8,30.7,37.8z"></path> </g> <g> <path class="st1" d="M64.3,49.8V11.4H71c2.1,0,3.7,0.7,4.7,2c0.6,0.8,0.9,1.7,0.9,2.8v2.4c0,2.3-0.5,3.8-1.4,4.6L75,23.3 c0.8,0.7,1.3,1.6,1.4,2.5v17.6c0,2.3-0.4,3.9-1.3,4.9s-2.7,1.5-5.3,1.5C69.8,49.8,64.3,49.8,64.3,49.8z M66.9,21.9h2.8 c2.2,0,3.6-0.2,4-0.5c0.3-0.3,0.5-1.2,0.5-2.8v-2.4c0-0.5-0.1-1-0.4-1.4c-0.5-0.7-1.4-1.1-2.7-1.1H67v8.2H66.9z M66.9,47.5h2.8 c2,0,3.2-0.3,3.7-0.8s0.7-1.6,0.7-3.3V26c-0.3-1.1-1.4-1.7-3.1-1.7h-4.1V47.5z"></path> <path class="st1" d="M81.8,49.8V11.4h2.6v38.4C84.4,49.8,81.8,49.8,81.8,49.8z"></path> <path class="st1" d="M95.6,49.8c-1.1-0.1-2-0.3-2.7-0.7s-1.3-0.9-1.7-1.4c-0.4-0.6-0.7-1.3-0.9-2.4c-0.2-1-0.4-2-0.4-2.9 c-0.1-0.9-0.1-2.2-0.1-3.7V22.5c0-1.5,0-2.8,0.1-3.7c0.1-0.9,0.2-1.9,0.4-2.9c0.2-1,0.5-1.8,0.9-2.3s1-1,1.7-1.4s1.6-0.6,2.7-0.7 c0.9,0.1,1.6,0.2,2.3,0.4c0.6,0.2,1.2,0.6,1.6,1.1s0.8,1,1,1.6c0.3,0.6,0.5,1.3,0.6,2.2c0.1,0.9,0.2,1.8,0.3,2.6 c0,0.8,0.1,1.9,0.1,3.1v16.2c0,1.5,0,2.7-0.1,3.7c-0.1,0.9-0.2,1.9-0.4,2.9c-0.2,1-0.5,1.8-1,2.4c-0.4,0.6-1,1-1.7,1.4 C97.6,49.6,96.7,49.8,95.6,49.8z M95.6,47.5c1.4-0.1,2.3-0.7,2.7-1.8c0.4-1.1,0.7-3.4,0.7-6.9V22.5c0-3.5-0.2-5.8-0.7-6.9 c-0.4-1.1-1.4-1.7-2.7-1.8c-1.4,0.1-2.3,0.7-2.7,1.8c-0.4,1.1-0.7,3.4-0.7,6.9v16.2c0,3.5,0.2,5.8,0.7,6.9 C93.4,46.8,94.3,47.4,95.6,47.5z"></path> <path class="st1" d="M106.6,49.8V11.4h10.9v1.9h-8.3v8.5h5.5v1.9h-5.5v26.1C109.2,49.8,106.6,49.8,106.6,49.8z"></path> <path class="st1" d="M126.1,49.8V24.1l-6.4-12.6h2.5l5.1,10.1l5.1-10.1h2.5l-6.4,12.6v25.7C128.5,49.8,126.1,49.8,126.1,49.8z"></path> </g> <g> <path class="st1" d="M146.7,12.2c0.9,0.5,1.7,1.3,2.2,2.2s0.8,1.9,0.8,3.1c0,1.1-0.3,2.2-0.8,3.1s-1.3,1.7-2.2,2.2s-1.9,0.8-3,0.8 s-2.1-0.3-3-0.8s-1.7-1.2-2.2-2.2c-0.5-0.9-0.8-2-0.8-3.1s0.3-2.2,0.8-3.1s1.3-1.6,2.2-2.2c0.9-0.5,1.9-0.8,3-0.8 C144.7,11.4,145.8,11.7,146.7,12.2z M146.1,21.7c0.7-0.4,1.3-1,1.7-1.7s0.6-1.6,0.6-2.5s-0.2-1.8-0.6-2.5c-0.4-0.7-1-1.3-1.7-1.7 s-1.5-0.6-2.4-0.6s-1.7,0.2-2.5,0.6c-0.7,0.4-1.3,1-1.8,1.7c-0.4,0.7-0.6,1.6-0.6,2.5s0.2,1.8,0.6,2.5c0.4,0.7,1,1.3,1.8,1.7 c0.7,0.4,1.6,0.6,2.5,0.6C144.5,22.3,145.4,22.1,146.1,21.7z M146.2,20.1c0,0.1,0,0.2,0,0.3c0,0.1-0.1,0.3-0.3,0.3 c-0.2,0.1-0.3,0.1-0.5,0.1s-0.4-0.2-0.6-0.4c-0.2-0.3-0.2-0.6-0.2-1.1c0-0.3-0.1-0.6-0.2-0.8c-0.2-0.2-0.4-0.3-0.7-0.3h-1v2.1 c0,0.1-0.1,0.2-0.2,0.4c-0.1,0.1-0.2,0.2-0.4,0.2c-0.1,0-0.3,0-0.4-0.1c-0.1-0.1-0.2-0.2-0.2-0.4v-5.5c0-0.1,0-0.2,0.1-0.3 s0.2-0.1,0.3-0.1h2c1.5,0,2.2,0.6,2.2,1.8c0,0.8-0.4,1.3-1.3,1.6c0.2,0.1,0.4,0.3,0.6,0.6c0.2,0.3,0.2,0.5,0.2,0.8s0,0.5,0.1,0.6 c0,0.1,0.1,0.2,0.3,0.2C146.1,19.9,146.1,20,146.2,20.1z M144.6,16.9c0.2-0.2,0.4-0.4,0.4-0.7s-0.1-0.5-0.3-0.7 c-0.2-0.1-0.5-0.2-0.9-0.2h-1.2v1.8h1.1C144.1,17.1,144.4,17,144.6,16.9z"></path> </g> </g> <g id="Layer_3" class="st2"> <path class="st3" d="M143.1,49.8h-25.3c-3.8,0-6.9-3.1-6.9-6.9l0,0c0-3.8,3.1-6.9,6.9-6.9h25.3c3.8,0,6.9,3.1,6.9,6.9l0,0 C150,46.7,146.9,49.8,143.1,49.8z"></path> <g class="st4"> <path class="st5" d="M124.2,39.6c0.1,0.1,0.2,0.3,0.2,0.4c0,0.2-0.1,0.3-0.2,0.4c-0.1,0.1-0.3,0.2-0.4,0.2h-1.6v5.3 c0,0.2-0.1,0.3-0.2,0.4c-0.1,0.1-0.3,0.2-0.5,0.2s-0.3-0.1-0.5-0.2c-0.1-0.1-0.2-0.3-0.2-0.4v-5.3h-1.6c-0.2,0-0.3-0.1-0.4-0.2 c-0.1-0.1-0.2-0.3-0.2-0.4c0-0.2,0.1-0.3,0.2-0.4c0.1-0.1,0.3-0.2,0.4-0.2h4.5C123.9,39.4,124,39.5,124.2,39.6z"></path> <path class="st5" d="M129.9,45.5c0.1,0.1,0.2,0.3,0.2,0.4c0,0.2-0.1,0.3-0.2,0.4c-0.1,0.1-0.3,0.2-0.4,0.2H126 c-0.2,0-0.3-0.1-0.4-0.2c-0.1-0.1-0.2-0.3-0.2-0.4V40c0-0.2,0.1-0.3,0.2-0.4c0.1-0.1,0.3-0.2,0.4-0.2h3.4c0.2,0,0.3,0.1,0.4,0.2 c0.1,0.1,0.2,0.3,0.2,0.4c0,0.2-0.1,0.3-0.2,0.4c-0.1,0.1-0.3,0.2-0.4,0.2h-2.8v1.7h2.3c0.2,0,0.3,0.1,0.4,0.2 c0.1,0.1,0.2,0.3,0.2,0.4c0,0.2-0.1,0.3-0.2,0.4c-0.1,0.1-0.3,0.2-0.4,0.2h-2.3v1.9h2.8C129.6,45.4,129.8,45.4,129.9,45.5z"></path> <path class="st5" d="M132.2,46.5c-0.4-0.1-0.7-0.3-1.1-0.6c-0.2-0.2-0.3-0.3-0.3-0.5s0.1-0.3,0.2-0.4c0.1-0.1,0.3-0.2,0.4-0.2 c0.1,0,0.2,0,0.3,0.1c0.3,0.2,0.5,0.4,0.8,0.5s0.6,0.2,0.9,0.2c0.4,0,0.7-0.1,1-0.3s0.4-0.4,0.4-0.6c0-0.3-0.1-0.5-0.4-0.7 c-0.3-0.2-0.7-0.3-1.3-0.4c-1.5-0.2-2.2-0.9-2.2-2.1c0-0.4,0.1-0.8,0.3-1.1s0.5-0.6,0.9-0.7c0.4-0.2,0.8-0.2,1.3-0.2 c0.4,0,0.8,0.1,1.2,0.2c0.4,0.1,0.7,0.3,0.9,0.5s0.3,0.3,0.3,0.5s-0.1,0.3-0.2,0.4c-0.1,0.1-0.3,0.2-0.4,0.2c-0.1,0-0.2,0-0.3-0.1 c-0.2-0.1-0.4-0.3-0.7-0.4c-0.3-0.1-0.6-0.2-0.9-0.2c-0.4,0-0.8,0.1-1,0.2c-0.2,0.2-0.4,0.4-0.4,0.6c0,0.3,0.1,0.5,0.4,0.7 c0.2,0.1,0.6,0.3,1.1,0.4c0.6,0.1,1.1,0.2,1.4,0.4c0.4,0.2,0.6,0.4,0.8,0.7s0.3,0.6,0.3,1.1c0,0.4-0.1,0.8-0.4,1.1 c-0.2,0.3-0.6,0.6-1,0.7c-0.4,0.2-0.8,0.3-1.3,0.3C133,46.6,132.6,46.6,132.2,46.5z"></path> <path class="st5" d="M142.4,39.6c0.1,0.1,0.2,0.3,0.2,0.4c0,0.2-0.1,0.3-0.2,0.4c-0.1,0.1-0.3,0.2-0.4,0.2h-1.6v5.3 c0,0.2-0.1,0.3-0.2,0.4c-0.1,0.1-0.3,0.2-0.5,0.2s-0.3-0.1-0.5-0.2c-0.1-0.1-0.2-0.3-0.2-0.4v-5.3h-1.6c-0.2,0-0.3-0.1-0.4-0.2 c-0.1-0.1-0.2-0.3-0.2-0.4c0-0.2,0.1-0.3,0.2-0.4c0.1-0.1,0.3-0.2,0.4-0.2h4.5C142.2,39.4,142.3,39.5,142.4,39.6z"></path> </g> </g> </svg>
